<svg id="Logo_den_trang_16px" xmlns="http://www.w3.org/2000/svg" viewBox="0 0 80.92 100" fill="currentColor" strokeWidth="0px"><path class="cls-1" d="M10.48,33.81c1.48,5.71,3.39,11.06,5.54,15.56.66-.67,1.37-1.34,2.14-2.01-1.94-4.09-3.68-8.99-5.04-14.23-1.9-7.35-3.7-14.3-3.96-19.43-.27-5.42,1.13-8.24,4.54-9.12.54-.14,1.06-.21,1.56-.21,6.35,0,9.23,11.1,12.8,24.89,1,3.86,1.72,7.65,2.15,11.18.88-.23,1.79-.43,2.7-.59-.47-3.61-1.22-7.42-2.22-11.28-2.11-8.17-4.11-15.88-6.73-21.08C20.99,1.56,17.28-.75,12.64.46c-4.64,1.2-6.76,5.01-6.5,11.66.23,5.82,2.23,13.53,4.34,21.7Z"/><path class="cls-1" d="M13.89,46.87c-.13.27-.96,1.32-1.12,1.58-2.17,3.36-3.67,7.01-4.35,10.94-1.43,8.28.63,15.49,6.75,21.45,3.72,3.62,8.19,5.87,13.02,7.54,6.34,2.2,12.9,3.3,19.59,3.63,5.23.25,10.45.08,15.58-1.16,5.19-1.26,9.97-3.32,13.93-6.99.17-.19.92-.78,1.12-.9-.43.72-1.09,1.8-1.47,2.45-3.1,5.29-7.74,8.74-13.29,11.09-5.59,2.37-11.49,3.14-17.49,3.42-7.38.34-14.7-.07-21.92-1.64-5.72-1.24-11.19-3.16-15.79-6.99C2.83,86.59.03,80.54.01,73.27c-.03-9.1,3.68-16.69,9.85-23.18.64-.68,1.35-1.27,2.04-1.88.61-.53,1.27-.98,1.99-1.35h0Z"/><path class="cls-1" d="M66.92,47.04s0,0,.01,0c.63.36,1.24.77,1.8,1.23,4.4,3.6,7.7,8.06,9.93,13.32,1.65,3.9,2.63,7.95,2.13,12.21-.22,1.86-.78,3.69-1.22,5.52-.07.29-.31.58-.54.77-5.94,4.96-12.87,7.61-20.43,8.8-4.48.71-8.97.76-13.47.12,0,0-.57-.09-1.04-.31,1.65-.56,3.52-1.17,5.14-1.8,8.17-3.16,14.58-8.36,18.4-16.38,1.97-4.13,2.88-8.56,2.49-13.14-.29-3.33-3.02-9.88-3.19-10.35Z"/><path class="cls-1" d="M23.22,57.01c-5.1,0-9.24,4.14-9.24,9.24s4.14,9.24,9.24,9.24,9.24-4.14,9.24-9.24-4.14-9.24-9.24-9.24ZM23.22,71.67c-3,0-5.42-2.43-5.42-5.42s2.43-5.42,5.42-5.42,5.42,2.43,5.42,5.42-2.43,5.42-5.42,5.42Z"/><path class="cls-1" d="M56.74,57.01c-5.1,0-9.24,4.14-9.24,9.24s4.14,9.24,9.24,9.24,9.24-4.14,9.24-9.24-4.14-9.24-9.24-9.24ZM56.74,71.67c-3,0-5.42-2.43-5.42-5.42s2.43-5.42,5.42-5.42,5.42,2.43,5.42,5.42-2.43,5.42-5.42,5.42Z"/><path class="cls-1" d="M67.45.49c-4.64-1.2-8.35,1.1-11.34,7.04-2.62,5.2-4.61,12.92-6.73,21.08-.64,2.47-1.17,4.92-1.6,7.31-2.92-1.01-6.03-1.64-8.62-1.64-3.57,0-7.62,1.04-11.04,2.58-.32-3.12-.94-6.59-1.88-10.2-3.12-12.05-5.65-21.82-12.07-20.15-6.42,1.66-3.89,11.43-.77,23.48,1.41,5.47,3.3,10.31,5.27,13.88-5.25,5.57-7.72,11.42-7.39,11.67.14.11.79-.81,3.19-3.09,2-1.9,4.29-4.07,7.08-5.91,2.45-1.62,6.07-3.58,10.85-4.58,2.52-.52,4.35-.77,6.49-.77,1.91,0,4.63.25,7.1.77,4.78.99,8.4,2.95,10.85,4.58,2.78,1.84,5.07,4.01,7.08,5.91,2.41,2.28,3.05,3.19,3.19,3.09.22-.16-.79-2.8-3.04-6.19,2.14-4.49,4.04-9.82,5.51-15.51,2.11-8.17,4.11-15.88,4.34-21.7.27-6.64-1.86-10.46-6.5-11.66ZM15.91,9.18l.5,1.93-.71,1.21-1.21-.71-.5-1.93,1.93-.5ZM12.75,14.57l-.5-1.93,1.93-.5,1.21.71-.71,1.21-1.93.5ZM15.7,16.28l-.5-1.93.71-1.21,1.21.71.5,1.93-1.93.5ZM17.43,13.35l-1.21-.71.71-1.21,1.93-.5.5,1.93-1.93.5ZM70.92,13.73c-.26,5.13-2.05,12.08-3.96,19.43-1.29,4.98-2.92,9.64-4.74,13.6-2.01-2.58-4.63-5.31-7.86-7.61-1.12-.8-2.49-1.55-3.97-2.21.42-2.48.97-5.05,1.64-7.65l-.7-.18.7.18c3.85-14.87,6.89-26.61,14.36-24.68,3.41.88,4.81,3.69,4.54,9.12Z"/><path class="cls-1" d="M66.07,6.64c-6.39-1.78-9.1,7.94-12.44,19.93-1.61,5.77-2.41,11.2-2.41,15.39,1.19.51,2.28,1.08,3.23,1.7,1.63,1.06,3.11,2.17,4.45,3.28,2.69-3.51,5.5-9.6,7.51-16.8,3.34-11.99,6.05-21.71-.34-23.49ZM65.19,9.18c.71,0,1.28.57,1.28,1.28s-.57,1.28-1.28,1.28-1.28-.57-1.28-1.28.57-1.28,1.28-1.28ZM61.22,12c0-.71.57-1.28,1.28-1.28s1.28.57,1.28,1.28-.57,1.28-1.28,1.28-1.28-.57-1.28-1.28ZM63.97,15.85c-.71,0-1.28-.57-1.28-1.28s.57-1.28,1.28-1.28,1.28.57,1.28,1.28-.57,1.28-1.28,1.28ZM66.58,14.48c-.71,0-1.28-.57-1.28-1.28s.57-1.28,1.28-1.28,1.28.57,1.28,1.28-.57,1.28-1.28,1.28Z"/></svg>