<svg id="logo_den_trang_100px" xmlns="http://www.w3.org/2000/svg" viewBox="0 0 12.98 16" fill="#fff" strokeWidth="0px"><path class="cls-1" d="M1.69,5.42c.24.91.54,1.77.89,2.49.11-.11.22-.21.34-.32-.31-.65-.59-1.44-.81-2.27-.3-1.18-.59-2.29-.63-3.11-.04-.87.18-1.32.72-1.46.09-.02.17-.03.25-.03,1.02,0,1.47,1.77,2.05,3.98.16.62.28,1.22.34,1.79.14-.04.29-.07.43-.09-.08-.58-.19-1.19-.35-1.8-.34-1.31-.66-2.54-1.08-3.37C3.36.27,2.77-.1,2.03.09c-.74.19-1.08.8-1.04,1.86.04.93.36,2.16.69,3.47Z"/><path class="cls-1" d="M2.23,7.51s-.15.21-.18.25c-.35.54-.59,1.12-.7,1.75-.23,1.32.1,2.48,1.08,3.43.59.58,1.31.94,2.08,1.21,1.01.35,2.06.53,3.13.58.84.04,1.67.01,2.49-.19.83-.2,1.59-.53,2.23-1.12.03-.03.15-.12.18-.14-.07.12-.17.29-.23.39-.49.85-1.24,1.4-2.12,1.77-.89.38-1.84.5-2.8.55-1.18.05-2.35-.01-3.5-.26-.91-.2-1.79-.5-2.52-1.12C.46,13.86.02,12.89.01,11.73c0-1.45.59-2.67,1.57-3.71.1-.11.22-.2.33-.3.1-.08.2-.16.32-.21h0Z"/><path class="cls-1" d="M10.71,7.54s0,0,0,0c.1.06.2.12.29.2.7.58,1.23,1.29,1.59,2.13.26.62.42,1.27.34,1.95-.04.3-.12.59-.2.88-.01.05-.05.09-.09.12-.95.79-2.06,1.22-3.26,1.41-.72.11-1.43.12-2.15.02,0,0-.09-.01-.17-.05.26-.09.56-.19.82-.29,1.31-.51,2.33-1.34,2.94-2.62.31-.66.46-1.37.4-2.1-.05-.53-.48-1.58-.51-1.65Z"/><path class="cls-1" d="M3.72,9.13c-.82,0-1.48.66-1.48,1.48s.66,1.48,1.48,1.48,1.48-.66,1.48-1.48-.66-1.48-1.48-1.48ZM3.72,11.47c-.48,0-.87-.39-.87-.87s.39-.87.87-.87.87.39.87.87-.39.87-.87.87Z"/><path class="cls-1" d="M9.08,9.13c-.82,0-1.48.66-1.48,1.48s.66,1.48,1.48,1.48,1.48-.66,1.48-1.48-.66-1.48-1.48-1.48ZM9.08,11.47c-.48,0-.87-.39-.87-.87s.39-.87.87-.87.87.39.87.87-.39.87-.87.87Z"/><path class="cls-1" d="M10.79.1c-.74-.19-1.33.18-1.81,1.13-.42.83-.74,2.06-1.08,3.37-.1.39-.19.79-.26,1.17-.47-.16-.96-.26-1.38-.26-.57,0-1.22.17-1.76.41-.05-.5-.15-1.05-.3-1.63-.5-1.93-.9-3.49-1.93-3.22-1.03.27-.62,1.83-.12,3.75.23.87.53,1.65.84,2.22-.84.89-1.23,1.83-1.18,1.87.02.02.13-.13.51-.49.32-.3.69-.65,1.13-.94.39-.26.97-.57,1.73-.73.4-.08.7-.12,1.04-.12.3,0,.74.04,1.14.12.76.16,1.34.47,1.73.73.44.29.81.64,1.13.94.38.36.49.51.51.49.04-.03-.13-.45-.49-.99.34-.72.65-1.57.88-2.48.34-1.31.66-2.54.69-3.47.04-1.06-.3-1.67-1.04-1.86ZM2.55,1.49l.08.31-.11.19-.19-.11-.08-.31.31-.08ZM2.05,2.35l-.08-.31.31-.08.19.11-.11.19-.31.08ZM2.52,2.62l-.08-.31.11-.19.19.11.08.31-.31.08ZM2.8,2.15l-.19-.11.11-.19.31-.08.08.31-.31.08ZM11.35,2.21c-.04.82-.33,1.93-.63,3.11-.21.8-.47,1.54-.76,2.17-.32-.41-.74-.85-1.26-1.22-.18-.13-.4-.25-.63-.35.07-.4.15-.81.26-1.22l-.11-.03.11.03c.62-2.38,1.1-4.25,2.29-3.95.54.14.77.59.72,1.46Z"/><path class="cls-1" d="M10.57,1.08c-1.02-.28-1.45,1.27-1.99,3.18-.26.92-.38,1.79-.39,2.46.19.08.36.17.52.27.26.17.5.35.71.52.43-.56.88-1.53,1.2-2.69.53-1.92.97-3.47-.05-3.75ZM10.43,1.49c.11,0,.2.09.2.2s-.09.2-.2.2-.2-.09-.2-.2.09-.2.2-.2ZM9.79,1.93c0-.11.09-.2.2-.2s.2.09.2.2-.09.2-.2.2-.2-.09-.2-.2ZM10.24,2.55c-.11,0-.2-.09-.2-.2s.09-.2.2-.2.2.09.2.2-.09.2-.2.2ZM10.65,2.33c-.11,0-.2-.09-.2-.2s.09-.2.2-.2.2.09.2.2-.09.2-.2.2Z"/></svg>