<?xml version="1.0" encoding="UTF-8"?><svg id="logo_mau_16px" xmlns="http://www.w3.org/2000/svg" viewBox="0 0 12.98 16"><defs><style>.cls-1{fill:#253b72;}.cls-1,.cls-2{stroke-width:0px;}.cls-2{fill:#f2692c;}</style></defs><path class="cls-1" d="M1.68,5.39c.24.92.54,1.77.89,2.49.11-.11.22-.21.34-.32-.31-.66-.59-1.44-.81-2.28-.3-1.18-.59-2.29-.63-3.11-.04-.87.18-1.32.73-1.46.09-.02.17-.03.25-.03,1.02,0,1.48,1.78,2.05,3.99.16.62.28,1.23.34,1.79.14-.04.29-.07.43-.09-.08-.58-.19-1.19-.35-1.81-.34-1.31-.66-2.54-1.08-3.38C3.37.23,2.77-.14,2.03.05,1.29.24.95.85.99,1.92c.04.93.36,2.17.7,3.48Z"/><path class="cls-1" d="M2.23,7.49s-.15.21-.18.25c-.35.54-.59,1.12-.7,1.75-.23,1.33.1,2.48,1.08,3.44.6.58,1.31.94,2.09,1.21,1.02.35,2.07.53,3.14.58.84.04,1.67.01,2.5-.19.83-.2,1.6-.53,2.23-1.12.03-.03.15-.12.18-.14-.07.12-.17.29-.23.39-.5.85-1.24,1.4-2.13,1.78-.9.38-1.84.5-2.8.55-1.18.05-2.36-.01-3.51-.26-.92-.2-1.79-.51-2.53-1.12C.46,13.85.01,12.88,0,11.72c0-1.46.59-2.67,1.58-3.71.1-.11.22-.2.33-.3.1-.08.2-.16.32-.22h0Z"/><path class="cls-1" d="M10.73,7.51s0,0,0,0c.1.06.2.12.29.2.7.58,1.23,1.29,1.59,2.13.26.62.42,1.27.34,1.96-.04.3-.12.59-.2.88-.01.05-.05.09-.09.12-.95.79-2.06,1.22-3.27,1.41-.72.11-1.44.12-2.16.02,0,0-.09-.01-.17-.05.26-.09.56-.19.82-.29,1.31-.51,2.34-1.34,2.95-2.62.32-.66.46-1.37.4-2.11-.05-.53-.48-1.58-.51-1.66Z"/><path class="cls-2" d="M3.73,9.11c-.82,0-1.48.66-1.48,1.48s.66,1.48,1.48,1.48,1.48-.66,1.48-1.48-.66-1.48-1.48-1.48ZM3.73,11.46c-.48,0-.87-.39-.87-.87s.39-.87.87-.87.87.39.87.87-.39.87-.87.87Z"/><path class="cls-1" d="M10.59,1.04c-1.02-.29-1.46,1.27-1.99,3.19-.26.92-.39,1.79-.39,2.47.19.08.37.17.52.27.26.17.5.35.71.52.43-.56.88-1.54,1.2-2.69.54-1.92.97-3.48-.05-3.76ZM10.45,1.45c.11,0,.21.09.21.21s-.09.21-.21.21-.21-.09-.21-.21.09-.21.21-.21ZM9.81,1.9c0-.11.09-.21.21-.21s.21.09.21.21-.09.21-.21.21-.21-.09-.21-.21ZM10.26,2.52c-.11,0-.21-.09-.21-.21s.09-.21.21-.21.21.09.21.21-.09.21-.21.21ZM10.67,2.3c-.11,0-.21-.09-.21-.21s.09-.21.21-.21.21.09.21.21-.09.21-.21.21Z"/><path class="cls-2" d="M9.1,9.11c-.82,0-1.48.66-1.48,1.48s.66,1.48,1.48,1.48,1.48-.66,1.48-1.48-.66-1.48-1.48-1.48ZM9.1,11.46c-.48,0-.87-.39-.87-.87s.39-.87.87-.87.87.39.87.87-.39.87-.87.87Z"/><path class="cls-2" d="M10.81.05c-.74-.19-1.34.18-1.82,1.13-.42.83-.74,2.07-1.08,3.38-.1.4-.19.79-.26,1.17-.47-.16-.97-.26-1.38-.26-.57,0-1.22.17-1.77.41-.05-.5-.15-1.06-.3-1.63-.5-1.93-.9-3.5-1.93-3.23-1.03.27-.62,1.83-.12,3.76.23.88.53,1.65.84,2.22-.84.89-1.24,1.83-1.18,1.87.02.02.13-.13.51-.49.32-.3.69-.65,1.13-.95.39-.26.97-.57,1.74-.73.4-.08.7-.12,1.04-.12.31,0,.74.04,1.14.12.77.16,1.35.47,1.74.73.45.29.81.64,1.13.95.39.37.49.51.51.49.04-.03-.13-.45-.49-.99.34-.72.65-1.57.88-2.48.34-1.31.66-2.54.7-3.48.04-1.06-.3-1.68-1.04-1.87ZM2.56,1.45l.08.31-.11.19-.19-.11-.08-.31.31-.08ZM2.05,2.31l-.08-.31.31-.08.19.11-.11.19-.31.08ZM2.52,2.59l-.08-.31.11-.19.19.11.08.31-.31.08ZM2.8,2.11l-.19-.11.11-.19.31-.08.08.31-.31.08ZM11.37,2.18c-.04.82-.33,1.94-.63,3.11-.21.8-.47,1.54-.76,2.18-.32-.41-.74-.85-1.26-1.22-.18-.13-.4-.25-.64-.35.07-.4.15-.81.26-1.23l-.11-.03.11.03c.62-2.38,1.1-4.26,2.3-3.96.55.14.77.59.73,1.46Z"/></svg>